<svg width="15" height="15" viewBox="0 0 15 15" fill="none" xmlns="http://www.w3.org/2000/svg">
<g clip-path="url(#clip0)">
<path d="M0.843163 6.32371L0.819748 6.32883H10.8571L7.7017 3.16651C7.54719 3.01212 7.46243 2.80298 7.46243 2.58347C7.46243 2.36395 7.54719 2.15627 7.7017 2.00151L8.19268 1.51029C8.34707 1.3559 8.5528 1.27054 8.77219 1.27054C8.9917 1.27054 9.19755 1.35529 9.35194 1.50968L14.7608 6.9181C14.9158 7.0731 15.0006 7.27956 15 7.4992C15.0006 7.72005 14.9158 7.92664 14.7608 8.08139L9.35194 13.4903C9.19755 13.6446 8.99182 13.7294 8.77219 13.7294C8.5528 13.7294 8.34707 13.6444 8.19268 13.4903L7.7017 12.9991C7.54719 12.8449 7.46243 12.6391 7.46243 12.4196C7.46243 12.2002 7.54719 12.0052 7.7017 11.8509L10.8927 8.6709H0.831944C0.37987 8.6709 -7.62939e-06 8.28127 -7.62939e-06 7.82944V7.13469C-7.62939e-06 6.68286 0.391089 6.32371 0.843163 6.32371Z" fill="#BDBDBD"/>
</g>
<defs>
<clipPath id="clip0">
<rect width="15" height="15" fill="white" transform="matrix(-1 0 0 1 15 0)"/>
</clipPath>
</defs>
</svg>
