<svg width="39" height="39" viewBox="0 0 39 39" fill="none" xmlns="http://www.w3.org/2000/svg">
<g clip-path="url(#clip0)">
<path fill-rule="evenodd" clip-rule="evenodd" d="M38.8788 17.3349C38.8171 16.7866 38.1779 16.3747 37.6252 16.3747C35.8382 16.3747 34.2524 15.3254 33.5874 13.7027C32.908 12.0406 33.3461 10.1022 34.6779 8.88057C35.0971 8.49734 35.148 7.85582 34.7964 7.41019C33.8818 6.24874 32.8423 5.19961 31.7072 4.29036C31.2627 3.93369 30.6106 3.98331 30.2252 4.41008C29.0629 5.69733 26.9751 6.17575 25.3618 5.5026C23.6829 4.79635 22.6242 3.09511 22.7278 1.26892C22.7619 0.695307 22.3427 0.19657 21.7708 0.129965C20.3142 -0.0385052 18.8448 -0.0437291 17.3839 0.118357C16.8185 0.180753 16.3993 0.667736 16.4183 1.23409C16.4819 3.04229 15.4104 4.71379 13.7482 5.39464C12.1542 6.04574 10.081 5.57138 8.92102 4.29559C8.53764 3.87535 7.89612 3.82369 7.44948 4.17181C6.28078 5.08875 5.21786 6.13875 4.29483 7.29062C3.93481 7.73842 3.98778 8.38749 4.4112 8.77275C5.7684 10.0018 6.20663 11.957 5.50155 13.6382C4.82839 15.2411 3.164 16.2741 1.25858 16.2741C0.640276 16.2542 0.199873 16.6693 0.132253 17.2314C-0.0392652 18.6964 -0.0412967 20.1891 0.123836 21.6661C0.185072 22.2166 0.843718 22.6249 1.40253 22.6249C3.10059 22.5815 4.73088 23.6328 5.41477 25.2971C6.09649 26.9592 5.65826 28.8964 4.32443 30.119C3.90724 30.5023 3.85428 31.1428 4.20587 31.5884C5.11193 32.7425 6.15163 33.7926 7.29073 34.7094C7.73752 35.0694 8.3876 35.0186 8.7749 34.5919C9.94157 33.3014 12.0292 32.8239 13.6362 33.4983C15.3193 34.2024 16.378 35.9035 16.2744 37.7307C16.2406 38.3046 16.6618 38.8042 17.2314 38.8698C17.9765 38.9567 18.7261 39.0001 19.4778 39.0001C20.1913 39.0001 20.9049 38.9609 21.6184 38.8815C22.1839 38.8191 22.6028 38.3322 22.5838 37.7648C22.5184 35.9576 23.5917 34.2861 25.2518 33.6064C26.8565 32.951 28.921 33.4307 30.0811 34.7052C30.4667 35.1245 31.1037 35.1752 31.5528 34.8282C32.7193 33.9135 33.7801 32.8643 34.7075 31.7093C35.0673 31.2625 35.0166 30.6124 34.591 30.2273C33.2338 28.9982 32.7934 27.0427 33.4984 25.3627C34.1613 23.7811 35.7639 22.7192 37.4876 22.7192L37.7288 22.7255C38.2879 22.7709 38.8023 22.3402 38.87 21.7695C39.0419 20.3032 39.0439 18.8118 38.8788 17.3349ZM19.5322 26.0457C15.9454 26.0457 13.0279 23.1282 13.0279 19.5414C13.0279 15.9547 15.9454 13.037 19.5322 13.037C23.1188 13.037 26.0364 15.9547 26.0364 19.5414C26.0364 23.1282 23.1188 26.0457 19.5322 26.0457Z" fill="#1FBF84"/>
</g>
<defs>
<clipPath id="clip0">
<rect width="39" height="39" fill="white"/>
</clipPath>
</defs>
</svg>
