<svg width="22" height="22" viewBox="0 0 22 22" fill="none" xmlns="http://www.w3.org/2000/svg">
<path d="M2.93333 8.06667C1.31597 8.06667 0 9.38263 0 11C0 12.6174 1.31597 13.9333 2.93333 13.9333C4.5507 13.9333 5.86667 12.6174 5.86667 11C5.86667 9.38263 4.5507 8.06667 2.93333 8.06667Z" fill="#BDBDBD"/>
<path d="M19.0667 8.06667C17.4493 8.06667 16.1333 9.38263 16.1333 11C16.1333 12.6174 17.4493 13.9333 19.0667 13.9333C20.684 13.9333 22 12.6174 22 11C22 9.38263 20.684 8.06667 19.0667 8.06667Z" fill="#BDBDBD"/>
<path d="M11 8.06667C9.38263 8.06667 8.06667 9.38263 8.06667 11C8.06667 12.6174 9.38263 13.9333 11 13.9333C12.6174 13.9333 13.9333 12.6174 13.9333 11C13.9333 9.38263 12.6174 8.06667 11 8.06667Z" fill="#BDBDBD"/>
</svg>
