<svg width="15" height="15" viewBox="0 0 15 15" fill="none" xmlns="http://www.w3.org/2000/svg">
<path d="M7.5 0C3.36457 0 0 3.36457 0 7.5C0 11.6354 3.36457 15 7.5 15C11.6354 15 15 11.6354 15 7.5C15 3.36457 11.6354 0 7.5 0ZM7.5 13.125C4.39849 13.125 1.875 10.6015 1.875 7.5C1.875 6.31623 2.23389 5.19715 2.91627 4.24225L10.7578 12.0837C9.80285 12.7661 8.68377 13.125 7.5 13.125ZM12.0837 10.7578L4.24225 2.91627C5.19715 2.23389 6.31623 1.875 7.5 1.875C10.6015 1.875 13.125 4.39849 13.125 7.5C13.125 8.68377 12.7661 9.80285 12.0837 10.7578Z" fill="#BDBDBD"/>
</svg>
