<svg width="37" height="37" viewBox="0 0 37 37" fill="none" xmlns="http://www.w3.org/2000/svg">
<g clip-path="url(#clip0)">
<path d="M31.1174 0.222333C30.821 -0.0741108 30.3358 -0.0741108 30.0393 0.222333L19.0391 11.2226C18.7426 11.519 18.2574 11.519 17.9609 11.2226L6.9609 0.222333C6.66445 -0.0741108 6.17923 -0.0741108 5.88279 0.222333L0.222333 5.88258C-0.0741108 6.17902 -0.0741108 6.66424 0.222333 6.96069L11.2226 17.9609C11.519 18.2574 11.519 18.7426 11.2226 19.0391L0.222333 30.0393C-0.0741108 30.3358 -0.0741108 30.821 0.222333 31.1174L5.88258 36.7777C6.17902 37.0741 6.66424 37.0741 6.96069 36.7777L17.9609 25.7774C18.2574 25.481 18.7426 25.481 19.0391 25.7774L30.0391 36.7775C30.3355 37.0739 30.8208 37.0739 31.1172 36.7775L36.7775 31.1172C37.0739 30.8208 37.0739 30.3355 36.7775 30.0391L25.7774 19.0391C25.481 18.7426 25.481 18.2574 25.7774 17.9609L36.7775 6.9609C37.0739 6.66445 37.0739 6.17923 36.7775 5.88279L31.1174 0.222333Z" fill="#FF686A"/>
</g>
<defs>
<clipPath id="clip0">
<rect width="37" height="37" fill="white"/>
</clipPath>
</defs>
</svg>
